<?xml version="1.0" encoding="UTF-8"?>
<!DOCTYPE svg PUBLIC "-//W3C//DTD SVG 1.1//EN" "http://www.w3.org/Graphics/SVG/1.1/DTD/svg11.dtd">
<svg xmlns="http://www.w3.org/2000/svg" version="1.1" width="400px" height="300px" style="shape-rendering:geometricPrecision; text-rendering:geometricPrecision; image-rendering:optimizeQuality; fill-rule:evenodd; clip-rule:evenodd" xmlns:xlink="http://www.w3.org/1999/xlink">
<g><path style="opacity:1" fill="#f6f6f6" d="M -0.5,-0.5 C 132.833,-0.5 266.167,-0.5 399.5,-0.5C 399.5,99.5 399.5,199.5 399.5,299.5C 266.167,299.5 132.833,299.5 -0.5,299.5C -0.5,199.5 -0.5,99.5 -0.5,-0.5 Z"/></g>
<g><path style="opacity:1" fill="#fefefe" d="M 153.5,69.5 C 184.168,69.3334 214.835,69.5 245.5,70C 265.333,72.5 276.5,83.6667 279,103.5C 279.667,133.833 279.667,164.167 279,194.5C 276.707,215.793 264.874,227.293 243.5,229C 212.833,229.667 182.167,229.667 151.5,229C 132.286,225.452 121.786,213.952 120,194.5C 119.044,162.133 119.378,129.799 121,97.5C 125.558,80.7693 136.391,71.436 153.5,69.5 Z"/></g>
<g><path style="opacity:1" fill="#bc4ffb" d="M 198.5,101.5 C 203.241,101.735 207.908,102.402 212.5,103.5C 213.817,105.876 213.15,107.543 210.5,108.5C 204.203,107.68 197.869,107.347 191.5,107.5C 192.29,106.206 193.29,105.039 194.5,104C 193.5,103.667 192.5,103.333 191.5,103C 194.036,102.814 196.369,102.314 198.5,101.5 Z"/></g>
<g><path style="opacity:1" fill="#9172fc" d="M 212.5,103.5 C 215.327,104.108 217.993,105.108 220.5,106.5C 220.923,108.781 220.256,110.448 218.5,111.5C 215.603,110.871 212.936,109.871 210.5,108.5C 213.15,107.543 213.817,105.876 212.5,103.5 Z"/></g>
<g><path style="opacity:1" fill="#fefdfe" d="M 191.5,107.5 C 197.869,107.347 204.203,107.68 210.5,108.5C 212.936,109.871 215.603,110.871 218.5,111.5C 221.131,113.153 223.797,114.819 226.5,116.5C 229.878,119.876 232.878,123.543 235.5,127.5C 244.675,145.564 243.008,162.564 230.5,178.5C 228.833,179.5 227.5,180.833 226.5,182.5C 223.797,184.181 221.131,185.847 218.5,187.5C 215.603,188.129 212.936,189.129 210.5,190.5C 200.953,192.32 191.62,191.654 182.5,188.5C 179.869,186.847 177.203,185.181 174.5,183.5C 159.996,171.457 154.83,156.124 159,137.5C 161.067,131.695 163.901,126.362 167.5,121.5C 172.635,116.69 178.302,112.69 184.5,109.5C 186.965,109.233 189.299,108.566 191.5,107.5 Z"/></g>
<g><path style="opacity:1" fill="#dd4beb" d="M 198.5,101.5 C 196.369,102.314 194.036,102.814 191.5,103C 192.5,103.333 193.5,103.667 194.5,104C 193.29,105.039 192.29,106.206 191.5,107.5C 189.299,108.566 186.965,109.233 184.5,109.5C 181.5,109.833 180.167,108.5 180.5,105.5C 186.119,102.596 192.119,101.263 198.5,101.5 Z"/></g>
<g><path style="opacity:1" fill="#738cfd" d="M 220.5,106.5 C 222.882,107.351 224.882,108.684 226.5,110.5C 226.5,112.5 226.5,114.5 226.5,116.5C 223.797,114.819 221.131,113.153 218.5,111.5C 220.256,110.448 220.923,108.781 220.5,106.5 Z"/></g>
<g><path style="opacity:1" fill="#e748d4" d="M 180.5,105.5 C 180.167,108.5 181.5,109.833 184.5,109.5C 178.302,112.69 172.635,116.69 167.5,121.5C 165.372,120.462 164.372,119.129 164.5,117.5C 168.751,112.043 174.085,108.043 180.5,105.5 Z"/></g>
<g><path style="opacity:1" fill="#4ab1fc" d="M 226.5,110.5 C 230.436,112.766 233.769,115.766 236.5,119.5C 236.938,121.126 237.272,122.793 237.5,124.5C 237.36,126.03 236.693,127.03 235.5,127.5C 232.878,123.543 229.878,119.876 226.5,116.5C 226.5,114.5 226.5,112.5 226.5,110.5 Z"/></g>
<g><path style="opacity:1" fill="#ed4fbe" d="M 164.5,117.5 C 164.372,119.129 165.372,120.462 167.5,121.5C 163.901,126.362 161.067,131.695 159,137.5C 154.83,156.124 159.996,171.457 174.5,183.5C 172.777,184.605 171.777,186.272 171.5,188.5C 151.237,171.535 146.403,150.868 157,126.5C 159.042,123.06 161.542,120.06 164.5,117.5 Z"/></g>
<g><path style="opacity:1" fill="#9a69fc" d="M 209.5,148.5 C 209.5,146.167 209.5,143.833 209.5,141.5C 212.233,136.741 216.233,134.074 221.5,133.5C 221.657,134.873 221.49,136.207 221,137.5C 217.298,141.37 213.464,145.037 209.5,148.5 Z"/></g>
<g><path style="opacity:1" fill="#ca4bf9" d="M 209.5,141.5 C 209.5,143.833 209.5,146.167 209.5,148.5C 204.193,153.472 198.86,158.472 193.5,163.5C 191.72,162.01 191.054,160.01 191.5,157.5C 197.177,151.824 203.177,146.491 209.5,141.5 Z"/></g>
<g><path style="opacity:1" fill="#38c8fc" d="M 236.5,119.5 C 246.052,130.697 249.552,143.697 247,158.5C 244.883,169.088 239.716,177.755 231.5,184.5C 231.795,182.265 231.461,180.265 230.5,178.5C 243.008,162.564 244.675,145.564 235.5,127.5C 236.693,127.03 237.36,126.03 237.5,124.5C 237.272,122.793 236.938,121.126 236.5,119.5 Z"/></g>
<g><path style="opacity:1" fill="#dd49ea" d="M 191.5,157.5 C 191.054,160.01 191.72,162.01 193.5,163.5C 192.594,165.914 190.928,166.747 188.5,166C 184.318,161.985 180.318,157.818 176.5,153.5C 177.212,151.954 178.378,150.954 180,150.5C 183.118,152.615 185.952,155.115 188.5,158C 189.577,158.47 190.577,158.303 191.5,157.5 Z"/></g>
<g><path style="opacity:1" fill="#5aa1fd" d="M 230.5,178.5 C 231.461,180.265 231.795,182.265 231.5,184.5C 230.415,186.587 228.749,187.92 226.5,188.5C 226.5,186.5 226.5,184.5 226.5,182.5C 227.5,180.833 228.833,179.5 230.5,178.5 Z"/></g>
<g><path style="opacity:1" fill="#e54bdd" d="M 174.5,183.5 C 177.203,185.181 179.869,186.847 182.5,188.5C 181.347,189.313 181.347,190.313 182.5,191.5C 181.757,192.182 181.091,192.849 180.5,193.5C 177.262,192.262 174.262,190.596 171.5,188.5C 171.777,186.272 172.777,184.605 174.5,183.5 Z"/></g>
<g><path style="opacity:1" fill="#7589fd" d="M 226.5,182.5 C 226.5,184.5 226.5,186.5 226.5,188.5C 224.882,190.316 222.882,191.649 220.5,192.5C 219.342,191.427 219.342,190.261 220.5,189C 220.164,187.97 219.497,187.47 218.5,187.5C 221.131,185.847 223.797,184.181 226.5,182.5 Z"/></g>
<g><path style="opacity:1" fill="#9773fc" d="M 218.5,187.5 C 219.497,187.47 220.164,187.97 220.5,189C 219.342,190.261 219.342,191.427 220.5,192.5C 217.993,193.892 215.327,194.892 212.5,195.5C 212.923,193.219 212.256,191.552 210.5,190.5C 212.936,189.129 215.603,188.129 218.5,187.5 Z"/></g>
<g><path style="opacity:1" fill="#c74bf8" d="M 182.5,188.5 C 191.62,191.654 200.953,192.32 210.5,190.5C 212.256,191.552 212.923,193.219 212.5,195.5C 201.536,198.716 190.87,198.05 180.5,193.5C 181.091,192.849 181.757,192.182 182.5,191.5C 181.347,190.313 181.347,189.313 182.5,188.5 Z"/></g>
</svg>
